<svg xmlns="http://www.w3.org/2000/svg" width="44.196" height="37.302" viewBox="0 0 44.196 37.302">
  <g id="그룹_1621" data-name="그룹 1621" transform="translate(0 0)">
    <path id="패스_11" data-name="패스 11" d="M-91.085-6273.684h-28.949a1.591,1.591,0,0,1-1.592-1.592,1.591,1.591,0,0,1,1.592-1.591h28.949a1.591,1.591,0,0,1,1.592,1.591A1.591,1.591,0,0,1-91.085-6273.684Z" transform="translate(121.626 6293.926)" fill="#fff"/>
    <path id="패스_12" data-name="패스 12" d="M-101.222-6252.963a1.584,1.584,0,0,1-1.126-.467,1.591,1.591,0,0,1,0-2.25l15.934-15.934-15.934-15.934a1.591,1.591,0,0,1,0-2.25,1.591,1.591,0,0,1,2.251,0l17.059,17.059a1.593,1.593,0,0,1,.466,1.125,1.6,1.6,0,0,1-.466,1.126L-100.1-6253.43A1.584,1.584,0,0,1-101.222-6252.963Z" transform="translate(126.767 6290.266)" fill="#fff"/>
  </g>
</svg>
