<svg xmlns="http://www.w3.org/2000/svg" width="95.203" height="149.037" viewBox="0 0 95.203 149.037"><path d="M-6413.1,5430.112v-13.771a4.2,4.2,0,0,0-4.106-4.192v-8.908a11.775,11.775,0,0,0-11.761-11.761h-67.573a11.775,11.775,0,0,0-11.762,11.761v14.375c0,15.052,4.817,27.037,13.562,33.747,3.708,2.846,9.642,4.936,16.459,5.88a20.854,20.854,0,0,0,5.761,13.686c-4.293,3.647-8.143,9.386-8.685,16.046-.587,7.237,2.555,13.165,8.624,16.261a20.189,20.189,0,0,0,9.166,2.118,21.2,21.2,0,0,0,13.668-4.84c6.9-5.9,10.484-13.147,10.674-21.538a3.36,3.36,0,0,0-3.282-3.437h-.077a3.359,3.359,0,0,0-3.359,3.285c-.146,6.4-2.947,11.979-8.325,16.584a14.661,14.661,0,0,1-15.409,1.841c-2.529-1.289-5.445-4.024-4.98-9.732.441-5.43,4.26-10.347,8.113-12.8,3.36,1.04,7.115.784,9.9-1.686a3.363,3.363,0,0,0,1.118-2.852,3.365,3.365,0,0,0-1.662-2.574c-2.667-1.544-5.965-1.648-9.454-.332l-.137-.1a13.485,13.485,0,0,1-4.876-9.392c5.1.108,14.644-.408,19.439-5.205,4.921-4.922,7.035-12.776,1.548-18.263-4.375-4.375-12.379-5.227-19.212,1.607a28.5,28.5,0,0,0-7.926,14.613c-5.222-.759-10.11-2.292-13-4.507-9.511-7.3-10.932-20.934-10.932-28.414v-14.375a5.046,5.046,0,0,1,5.042-5.04h17.8a5.462,5.462,0,0,0,5.459,5.427h21.057a5.459,5.459,0,0,0,5.459-5.427h17.8a5.045,5.045,0,0,1,5.04,5.04v100.373a.12.12,0,0,0,.005.029.116.116,0,0,0-.005.028v25.085a5.045,5.045,0,0,1-5.04,5.041h-67.573a5.047,5.047,0,0,1-5.042-5.041V5503.67c0-.01,0-.019,0-.028s0-.019,0-.029v-40.2a3.36,3.36,0,0,0-3.36-3.36,3.36,3.36,0,0,0-3.36,3.36v40.2c0,.01,0,.019,0,.029s0,.019,0,.028v25.085a11.775,11.775,0,0,0,11.762,11.761h67.573a11.774,11.774,0,0,0,11.761-11.761V5503.67c0-.01,0-.019,0-.028s0-.019,0-.029v-42.841a4.2,4.2,0,0,0,4.106-4.191V5442.81a4.2,4.2,0,0,0-4.106-4.191V5434.3A4.2,4.2,0,0,0-6413.1,5430.112Zm-51.874,10.563c3.887-3.886,7.756-3.557,9.707-1.608,1.664,1.665,2.256,4.956-1.548,8.761-2.313,2.314-7.921,3.362-14.07,3.253A21.649,21.649,0,0,1-6464.973,5440.676Z" transform="translate(6508.302 -5391.48)" fill="#ea0029"/></svg>