<svg xmlns="http://www.w3.org/2000/svg" width="102.167" height="148.24" viewBox="0 0 102.167 148.24"><g transform="translate(0 0)"><path d="M-2871.059,2649.229a50.378,50.378,0,0,0-36.033-15.191c-.228-.008-.454-.007-.681.005l-.1.007a7.016,7.016,0,0,0-.775.11l-.045.01a50.627,50.627,0,0,0-34.948,15.452,51.534,51.534,0,0,0-14.649,36.134,51.985,51.985,0,0,0,6.169,24.3,7.421,7.421,0,0,0,.712,1.666,3.188,3.188,0,0,0,.192.293l37.886,66.547a7.31,7.31,0,0,0,6.373,3.711,7.26,7.26,0,0,0,3.582-.944,7.323,7.323,0,0,0,2.77-2.774l37.388-66.589.166-.249a3.645,3.645,0,0,0,.2-.343,7.49,7.49,0,0,0,.5-1.25l.022-.064a52.015,52.015,0,0,0,6.209-24.317A51.689,51.689,0,0,0-2871.059,2649.229Zm2.707,57.907a3.384,3.384,0,0,0-.284.7c-.01.037-.023.073-.037.108-.032.091-.063.181-.089.274l-.008.028-.08.12c-.047.07-.092.142-.133.217l-37.448,66.692a.617.617,0,0,1-.232.235.624.624,0,0,1-.85-.245l-38-66.75c-.041-.074-.085-.147-.131-.221a3.362,3.362,0,0,0-.357-.987,45.256,45.256,0,0,1-5.6-21.564c0-24.271,19.537-44.413,43.551-44.9a3.431,3.431,0,0,0,.808-.117h.07a43.739,43.739,0,0,1,31.352,13.2,45.041,45.041,0,0,1,13.015,31.8A45.291,45.291,0,0,1-2868.352,2707.135Z" transform="translate(2958.287 -2634.031)"/><path d="M-2879.1,2676.589c-7.168-15.619-14.455-22.584-23.625-22.584-7.126,0-13.078,4.237-18.726,13.33-8.184,12.863-3.906,18.566-2.963,19.581,1.939,2.063,5.074,3.144,9.314,3.216.87.014,1.746-.011,2.615-.076a13.346,13.346,0,0,0,2.392,4.376,15.44,15.44,0,0,0-4.815,9.623,10.546,10.546,0,0,0,5.728,10.778,13.963,13.963,0,0,0,14.8-1.771,18.055,18.055,0,0,0,6.78-13.77,3,3,0,0,0-2.972-3.024h-.02a3.007,3.007,0,0,0-3,2.958,12.216,12.216,0,0,1-4.646,9.253,7.911,7.911,0,0,1-8.214.99,4.556,4.556,0,0,1-2.465-4.872,9.748,9.748,0,0,1,4.071-6.734,7,7,0,0,0,6.448-1.353,2.922,2.922,0,0,0,.578-.686l.055-.092a2.971,2.971,0,0,0,.282-2.257,2.979,2.979,0,0,0-1.417-1.818,7.375,7.375,0,0,0-5.98-.456,6.355,6.355,0,0,1-1.54-2.1c4.71-1.122,8.777-2.988,10.711-4.921a9.938,9.938,0,0,0,3.178-6.484,7.627,7.627,0,0,0-2.231-5.9,8.072,8.072,0,0,0-5.908-2.3,10.173,10.173,0,0,0-7.034,3.26,18.432,18.432,0,0,0-5.331,10.957c-.016.125-.031.249-.042.374-.639.044-1.29.061-1.973.055a7.55,7.55,0,0,1-5.006-1.356c-1.33-1.575.834-7.729,3.7-12.253,5.832-9.427,10.579-10.517,13.642-10.517,4.043,0,10.321,1.978,18.147,19.077a43.453,43.453,0,0,1,2.975,8.879,35.848,35.848,0,0,1,.323,14.356,25.16,25.16,0,0,1-6.905,13.387,21.781,21.781,0,0,1-14.53,6.21,21.765,21.765,0,0,1-14.563-6.205c-7.261-7.261-7.666-16.648-7.261-21.608a3,3,0,0,0-2.749-3.229,3.008,3.008,0,0,0-3.233,2.745c-.477,5.993.056,17.381,9,26.328a27.6,27.6,0,0,0,18.769,7.962h.031a27.622,27.622,0,0,0,18.789-7.974,31.4,31.4,0,0,0,8.563-16.5,42,42,0,0,0-.357-16.758A49.791,49.791,0,0,0-2879.1,2676.589Zm-24.354.39a4.406,4.406,0,0,1,3.019-1.494l.06,0a2,2,0,0,1,1.354.575,1.658,1.658,0,0,1,.49,1.267,4.172,4.172,0,0,1-1.351,2.555,19.388,19.388,0,0,1-6.971,3.191A12.353,12.353,0,0,1-2903.452,2676.979Z" transform="translate(2953.745 -2637.313)"/></g></svg>