<svg xmlns="http://www.w3.org/2000/svg" width="34.71" height="29.296" viewBox="0 0 34.71 29.296"><g transform="translate(34.71 29.296) rotate(180)"><path d="M-97.64-6274.367h-22.736a1.25,1.25,0,0,1-1.25-1.25,1.25,1.25,0,0,1,1.25-1.25H-97.64a1.25,1.25,0,0,1,1.25,1.25A1.25,1.25,0,0,1-97.64-6274.367Z" transform="translate(121.626 6290.265)"/><path d="M-101.564-6260.969a1.242,1.242,0,0,1-.884-.367,1.249,1.249,0,0,1,0-1.767l12.514-12.514-12.514-12.514a1.251,1.251,0,0,1,0-1.768,1.25,1.25,0,0,1,1.768,0l13.4,13.4a1.251,1.251,0,0,1,.366.884,1.252,1.252,0,0,1-.366.884l-13.4,13.4A1.242,1.242,0,0,1-101.564-6260.969Z" transform="translate(121.626 6290.265)"/></g></svg>