<svg xmlns="http://www.w3.org/2000/svg" width="27.344" height="39.212" viewBox="0 0 27.344 39.212"><g transform="translate(1.5 1.5)"><path d="M233.555,208.754a.954.954,0,0,0-.105,0h0a.958.958,0,0,0-.105.015l-.03.015a12.273,12.273,0,0,0-10.405,18.209v.031a1.03,1.03,0,0,0,.105.256c0,.006.012.01.015.015l9.7,17.036a1.01,1.01,0,0,0,1.759,0l9.548-17.006.06-.091a1.018,1.018,0,0,0,.075-.2c.011-.03.021-.06.03-.09a12.279,12.279,0,0,0-10.646-18.194Z" transform="translate(-221.375 -208.753)" fill="none" stroke="#000" stroke-width="3"/></g></svg>